<svg width="64" height="64" viewBox="0 0 64 64" fill="none" xmlns="http://www.w3.org/2000/svg">
<g clip-path="url(#clip0)">
<path d="M8.52421 20.5128C18.188 10.849 33.8234 10.849 43.4872 20.5128C53.151 30.1766 53.151 45.812 43.4872 55.4758C37.6068 61.3561 29.4929 63.6809 21.8348 62.359C32.9573 66.0513 45.7664 63.4986 54.6097 54.6553C67.0997 42.1652 67.0997 21.8803 54.6097 9.39031C42.1197 -3.1453 21.8803 -3.1453 9.39031 9.39031C0.501422 18.2336 -2.05128 30.9971 1.64102 42.1652C0.36467 34.5071 2.64387 26.3932 8.52421 20.5128Z" fill="#124791"/>
<path d="M25.3167 22C16.1167 22 8.66666 29.4667 8.66666 38.6667C8.66666 47.8667 16.1167 55.3333 25.3167 55.3333C34.5333 55.3333 42 47.8667 42 38.6667C42 29.4667 34.5333 22 25.3167 22ZM36.8667 32H31.95C31.4167 29.9167 30.65 27.9167 29.65 26.0667C32.7167 27.1167 35.2667 29.25 36.8667 32ZM25.3333 25.4C26.7167 27.4 27.8 29.6167 28.5167 32H22.15C22.8667 29.6167 23.95 27.4 25.3333 25.4ZM12.4333 42C12.1667 40.9333 12 39.8167 12 38.6667C12 37.5167 12.1667 36.4 12.4333 35.3333H18.0667C17.9333 36.4333 17.8333 37.5333 17.8333 38.6667C17.8333 39.8 17.9333 40.9 18.0667 42H12.4333ZM13.8 45.3333H18.7167C19.25 47.4167 20.0167 49.4167 21.0167 51.2667C17.95 50.2167 15.4 48.1 13.8 45.3333V45.3333ZM18.7167 32H13.8C15.4 29.2333 17.95 27.1167 21.0167 26.0667C20.0167 27.9167 19.25 29.9167 18.7167 32V32ZM25.3333 51.9333C23.95 49.9333 22.8667 47.7167 22.15 45.3333H28.5167C27.8 47.7167 26.7167 49.9333 25.3333 51.9333ZM29.2333 42H21.4333C21.2833 40.9 21.1667 39.8 21.1667 38.6667C21.1667 37.5333 21.2833 36.4167 21.4333 35.3333H29.2333C29.3833 36.4167 29.5 37.5333 29.5 38.6667C29.5 39.8 29.3833 40.9 29.2333 42ZM29.65 51.2667C30.65 49.4167 31.4167 47.4167 31.95 45.3333H36.8667C35.2667 48.0833 32.7167 50.2167 29.65 51.2667V51.2667ZM32.6 42C32.7333 40.9 32.8333 39.8 32.8333 38.6667C32.8333 37.5333 32.7333 36.4333 32.6 35.3333H38.2333C38.5 36.4 38.6667 37.5167 38.6667 38.6667C38.6667 39.8167 38.5 40.9333 38.2333 42H32.6Z" fill="#2E6EB1"/>
</g>
<defs>
<clipPath id="clip0">
<rect width="64" height="64" fill="white"/>
</clipPath>
</defs>
</svg>
