<svg width="64" height="64" viewBox="0 0 64 64" fill="none" xmlns="http://www.w3.org/2000/svg">
<path d="M32 64C49.6731 64 64 49.6731 64 32C64 14.3269 49.6731 0 32 0C14.3269 0 0 14.3269 0 32C0 49.6731 14.3269 64 32 64Z" fill="#6858EE"/>
<path d="M44.6369 19.3944C43.7616 18.5964 40.224 16.0595 32.3444 16.025C32.3444 16.025 23.0524 15.4715 18.5227 19.5761C16.0013 22.0676 15.1142 25.7133 15.0207 30.2329C14.9271 34.7528 14.8061 43.2232 23.0709 45.5199H23.0789L23.0736 49.0245C23.0736 49.0245 23.0207 50.4434 23.9664 50.7326C25.1103 51.0835 25.7817 50.0051 26.8739 48.8427C27.4733 48.2046 28.3011 47.2672 28.9248 46.5508C34.5773 47.0207 38.9247 45.9465 39.4184 45.7878C40.5597 45.4221 47.0177 44.6049 48.0681 36.1351C49.1524 27.4052 47.5438 21.8833 44.6369 19.3944Z" fill="white"/>
<path d="M42.8007 21.1575C42.0607 20.4933 38.8662 18.5104 32.2009 18.4817C32.2009 18.4817 24.3082 17.9695 20.4768 21.3978C18.3443 23.4777 17.6259 26.5709 17.5472 30.3454C17.4685 34.1201 17.0603 41.3308 24.0491 43.249C24.0491 43.249 24.0217 48.6022 24.0185 49.0727C24.0185 49.4017 24.0714 49.6268 24.2617 49.6732C24.3985 49.7062 24.6037 49.6361 24.7781 49.4644C25.8956 48.3556 29.4733 44.0918 29.4733 44.0918C34.2736 44.4014 38.0928 43.4651 38.5036 43.3325C39.472 43.0248 44.7101 42.5805 45.5967 35.5065C46.5128 28.2148 45.2598 23.2376 42.8007 21.1575Z" fill="#7360F2"/>
<path fill-rule="evenodd" clip-rule="evenodd" d="M32.4811 27.292C32.494 27.0492 32.7037 26.8627 32.9494 26.8754C33.8689 26.9227 34.6339 27.1978 35.1789 27.7543C35.7217 28.3087 35.9877 29.0832 36.0344 30.0133C36.0465 30.2562 35.8572 30.4628 35.6114 30.4749C35.3656 30.4869 35.1565 30.2998 35.1443 30.0571C35.1043 29.2608 34.8831 28.7186 34.5382 28.3663C34.1953 28.0162 33.6722 27.7942 32.903 27.7545C32.6572 27.7419 32.4683 27.5349 32.4811 27.292Z" fill="white"/>
<path fill-rule="evenodd" clip-rule="evenodd" d="M31.8059 24.9205C31.8239 24.678 32.0374 24.4958 32.2828 24.5137C34.1542 24.649 35.6605 25.2806 36.7576 26.4637L36.7578 26.464C37.843 27.6355 38.3589 29.0928 38.3214 30.8021C38.316 31.0452 38.1122 31.238 37.8662 31.2328C37.6201 31.2275 37.425 31.0263 37.4303 30.7831C37.4634 29.2757 37.0146 28.0453 36.1002 27.0584C35.1887 26.0755 33.9145 25.5144 32.2178 25.3917C31.9724 25.374 31.7879 25.163 31.8059 24.9205Z" fill="white"/>
<path fill-rule="evenodd" clip-rule="evenodd" d="M31.0195 22.6654C31.0212 22.4223 31.2222 22.2266 31.4683 22.2283C34.0544 22.2461 36.2404 23.0966 37.9954 24.7868C39.7652 26.4911 40.6403 28.8115 40.6626 31.6932C40.6644 31.9363 40.4665 32.135 40.2204 32.1368C39.9743 32.1386 39.7733 31.943 39.7713 31.6998C39.7506 28.9995 38.9374 26.9235 37.3733 25.4172C35.7945 23.8969 33.8344 23.125 31.4621 23.1087C31.216 23.107 31.0179 22.9086 31.0195 22.6654Z" fill="white"/>
<path d="M33.0137 35.9319C33.0137 35.9319 33.6401 35.9841 33.9773 35.5736L34.6349 34.7563C34.9522 34.3511 35.7176 34.0926 36.4672 34.5051C37.0289 34.8216 37.5743 35.1656 38.1011 35.536C38.5985 35.8973 39.6172 36.737 39.6204 36.737C40.1056 37.1418 40.2177 37.736 39.8873 38.3627C39.8873 38.3663 39.8847 38.3726 39.8847 38.3758C39.5208 38.999 39.0588 39.5609 38.5161 40.0406C38.5097 40.0437 38.5097 40.0469 38.504 40.0499C38.0324 40.4393 37.5691 40.6605 37.1142 40.7138C37.0473 40.7253 36.9792 40.7295 36.9113 40.7263C36.7105 40.7281 36.5109 40.6979 36.3202 40.6364L36.3055 40.6151C35.6044 40.4198 34.4341 39.9309 32.4851 38.8687C31.3572 38.2614 30.2835 37.5606 29.2753 36.7742C28.77 36.3802 28.288 35.9579 27.8317 35.5094L27.7831 35.4612L27.7344 35.4132L27.6858 35.3652C27.6694 35.3496 27.6535 35.3333 27.6372 35.3172C27.1831 34.8663 26.7557 34.3902 26.3569 33.8909C25.5609 32.8951 24.8515 31.8345 24.2366 30.7206C23.1614 28.7947 22.6665 27.6395 22.4689 26.946L22.4472 26.9313C22.3852 26.7429 22.3547 26.5458 22.3568 26.3475C22.3531 26.2804 22.3572 26.2132 22.3689 26.147C22.4257 25.6983 22.65 25.2402 23.042 24.7731C23.045 24.7673 23.0482 24.7673 23.0514 24.7611C23.5368 24.2249 24.1057 23.7687 24.7367 23.4096C24.7398 23.4096 24.7462 23.4064 24.7499 23.4064C25.3843 23.08 25.9857 23.1908 26.3949 23.6675C26.3981 23.6707 27.2465 24.677 27.6108 25.1684C27.9856 25.6894 28.3339 26.2287 28.6542 26.7841C29.0718 27.5241 28.8101 28.2819 28.4 28.5941L27.5726 29.2437C27.155 29.577 27.21 30.1957 27.21 30.1957C27.21 30.1957 28.4354 34.7772 33.0137 35.9319Z" fill="white"/>
</svg>
