<svg width="64" height="64" viewBox="0 0 64 64" fill="none" xmlns="http://www.w3.org/2000/svg">
<circle cx="32" cy="32" r="32" fill="#467293"/>
<g clip-path="url(#clip0)">
<path d="M47.1111 17.0669H32.1777C30.805 17.0669 29.6888 18.183 29.6888 19.5558V30.7558C29.6888 32.1286 30.805 33.2447 32.1777 33.2447H35.9111V36.5113C35.9111 36.7874 36.1366 36.978 36.3777 36.978C36.4711 36.978 36.5683 36.9508 36.6538 36.8847L41.5111 33.2447H47.1111C48.4838 33.2447 49.6 32.1286 49.6 30.7558V19.5558C49.6 18.183 48.4838 17.0669 47.1111 17.0669ZM48.3555 30.7558C48.3555 31.4402 47.7955 32.0002 47.1111 32.0002H41.095L40.7644 32.2491L37.1555 34.9558V32.0002H32.1777C31.4933 32.0002 30.9333 31.4402 30.9333 30.7558V19.5558C30.9333 18.8713 31.4933 18.3113 32.1777 18.3113H47.1111C47.7955 18.3113 48.3555 18.8713 48.3555 19.5558V30.7558ZM40.5777 26.4002H34.9777C34.8066 26.4002 34.6666 26.5402 34.6666 26.7113V27.3336C34.6666 27.5047 34.8066 27.6447 34.9777 27.6447H40.5777C40.7488 27.6447 40.8888 27.5047 40.8888 27.3336V26.7113C40.8888 26.5402 40.7488 26.4002 40.5777 26.4002ZM44.3111 22.6669H34.9777C34.8066 22.6669 34.6666 22.8069 34.6666 22.978V23.6002C34.6666 23.7713 34.8066 23.9113 34.9777 23.9113H44.3111C44.4822 23.9113 44.6222 23.7713 44.6222 23.6002V22.978C44.6222 22.8069 44.4822 22.6669 44.3111 22.6669Z" fill="white"/>
</g>
<g clip-path="url(#clip1)">
<rect x="15.4666" y="28.0894" width="17.7778" height="14.2222" fill="#467293"/>
<path d="M31.8222 27.0225H16.8889C15.5161 27.0225 14.4 28.1386 14.4 29.5113V40.7113C14.4 42.0841 15.5161 43.2002 16.8889 43.2002H20.6222V46.4669C20.6222 46.743 20.8477 46.9336 21.0889 46.9336C21.1822 46.9336 21.2794 46.9063 21.365 46.8402L26.2222 43.2002H31.8222C33.195 43.2002 34.3111 42.0841 34.3111 40.7113V29.5113C34.3111 28.1386 33.195 27.0225 31.8222 27.0225ZM33.0666 40.7113C33.0666 41.3958 32.5066 41.9558 31.8222 41.9558H25.8061L25.4755 42.2047L21.8666 44.9113V41.9558H16.8889C16.2044 41.9558 15.6444 41.3958 15.6444 40.7113V29.5113C15.6444 28.8269 16.2044 28.2669 16.8889 28.2669H31.8222C32.5066 28.2669 33.0666 28.8269 33.0666 29.5113V40.7113Z" fill="white"/>
<path fill-rule="evenodd" clip-rule="evenodd" d="M22.8444 37.6875L26.8444 35.3781L22.8444 33.0687L22.8444 37.6875ZM28.4444 35.686C28.6815 35.5492 28.6815 35.2071 28.4444 35.0702L22.3111 31.5291C22.0741 31.3923 21.7778 31.5633 21.7778 31.837L21.7778 38.9192C21.7778 39.1929 22.0741 39.364 22.3111 39.2271L28.4444 35.686Z" fill="white"/>
</g>
<defs>
<clipPath id="clip0">
<rect width="19.9111" height="19.9111" fill="white" transform="translate(29.6888 17.0669)"/>
</clipPath>
<clipPath id="clip1">
<rect width="19.9111" height="19.9111" fill="white" transform="translate(14.4 27.0225)"/>
</clipPath>
</defs>
</svg>
