<svg width="64" height="64" viewBox="0 0 64 64" fill="none" xmlns="http://www.w3.org/2000/svg">
<path d="M32 64C49.6731 64 64 49.6731 64 32C64 14.3269 49.6731 0 32 0C14.3269 0 0 14.3269 0 32C0 49.6731 14.3269 64 32 64Z" fill="url(#paint0_radial_805_781)"/>
<path fill-rule="evenodd" clip-rule="evenodd" d="M16 31.5196C16 22.6038 22.988 16 32 16C41.012 16 48 22.6078 48 31.5236C48 40.4393 41.012 47.0432 32 47.0432C30.38 47.0432 28.828 46.8272 27.368 46.4272C27.084 46.3512 26.78 46.3712 26.512 46.4912L23.336 47.8911C23.1442 47.9757 22.9345 48.0119 22.7254 47.9965C22.5164 47.9812 22.3142 47.9146 22.1369 47.8029C21.9595 47.6911 21.8123 47.5374 21.7083 47.3555C21.6042 47.1735 21.5464 46.9687 21.54 46.7592L21.452 43.9112C21.444 43.5592 21.284 43.2313 21.024 42.9993C17.912 40.2153 16 36.1834 16 31.5196ZM27.0915 28.6037L22.3915 36.0594C21.9395 36.7754 22.8195 37.5794 23.4915 37.0674L28.5395 33.2355C28.7056 33.1094 28.9083 33.0407 29.1169 33.04C29.3254 33.0393 29.5286 33.1065 29.6955 33.2315L33.4355 36.0354C33.7008 36.2347 34.0045 36.3767 34.3274 36.4527C34.6504 36.5286 34.9856 36.5367 35.3118 36.4766C35.6381 36.4165 35.9483 36.2893 36.223 36.1033C36.4976 35.9172 36.7307 35.6762 36.9075 35.3955L41.6115 27.9437C42.0595 27.2277 41.1795 26.4197 40.5075 26.9317L35.4595 30.7636C35.2934 30.8897 35.0908 30.9584 34.8822 30.9591C34.6736 30.9598 34.4705 30.8926 34.3035 30.7676L30.5635 27.9637C30.2982 27.7644 29.9946 27.6224 29.6716 27.5465C29.3487 27.4705 29.0135 27.4624 28.6872 27.5225C28.361 27.5826 28.0507 27.7098 27.7761 27.8959C27.5014 28.0819 27.2683 28.3229 27.0915 28.6037Z" fill="white"/>
<defs>
<radialGradient id="paint0_radial_805_781" cx="0" cy="0" r="1" gradientUnits="userSpaceOnUse" gradientTransform="translate(10.72 63.9982) scale(70.4 70.3981)">
<stop stop-color="#0099FF"/>
<stop offset="0.6" stop-color="#A033FF"/>
<stop offset="0.9" stop-color="#FF5280"/>
<stop offset="1" stop-color="#FF7061"/>
</radialGradient>
</defs>
</svg>
