<svg width="64" height="64" viewBox="0 0 64 64" fill="none" xmlns="http://www.w3.org/2000/svg">
<path d="M32 64C49.7333 64 64 49.7333 64 32C64 14.2667 49.7333 0 32 0C14.2667 0 0 14.2667 0 32C0 49.7333 14.2667 64 32 64Z" fill="#2DC100"/>
<path d="M39.7351 26.1334C36.0018 26.2667 32.9351 27.4667 30.2685 30.0001C27.6018 32.5334 26.4018 35.6001 26.8018 39.4667C25.3351 39.3334 24.0018 39.0667 22.8018 38.9334C22.4018 38.9334 21.8685 38.9334 21.4685 39.2001C20.1351 39.8667 18.9351 40.6667 17.4685 41.6001C17.7351 40.4001 17.8685 39.3334 18.2685 38.2667C18.5351 37.4667 18.4018 37.0667 17.7351 36.6667C13.3351 33.6001 11.4685 28.9334 12.8018 24.1334C14.1351 19.7334 17.2018 17.0667 21.4685 15.6001C27.3351 13.7334 33.8685 15.6001 37.4685 20.2667C38.8018 22.0001 39.6018 23.8667 39.7351 26.1334ZM22.9351 24.6667C22.9351 23.7334 22.2685 23.0667 21.3351 22.9334C20.4018 22.9334 19.6018 23.6001 19.6018 24.5334C19.6018 25.4667 20.2685 26.1334 21.2018 26.2667C22.1351 26.2667 22.8018 25.6001 22.9351 24.6667ZM31.7351 22.9334C30.8018 22.9334 30.0018 23.7334 30.1351 24.5334C30.1351 25.4667 30.9351 26.1334 31.8685 26.1334C32.8018 26.1334 33.4685 25.4667 33.4685 24.5334C33.3351 23.6001 32.6685 22.9334 31.7351 22.9334Z" fill="white"/>
<path d="M48.0024 48.9328C46.8024 48.3994 45.7357 47.5994 44.669 47.4661C43.6024 47.3328 42.4024 47.9994 41.2024 48.1328C37.6024 48.5328 34.4024 47.4661 31.7357 45.0661C26.669 40.3994 27.3357 33.1994 33.2024 29.3328C38.4024 25.8661 46.0024 27.0661 49.7357 31.7328C52.9357 35.8661 52.5357 41.3328 48.669 44.7994C47.6024 45.8661 47.069 46.6661 47.869 47.9994C47.869 48.3994 47.869 48.6661 48.0024 48.9328ZM34.8024 36.1328C35.6024 36.1328 36.1357 35.5994 36.1357 34.7994C36.1357 33.9994 35.6024 33.3328 34.8024 33.3328C34.0024 33.3328 33.3357 33.9994 33.469 34.7994C33.469 35.5994 34.0024 36.1328 34.8024 36.1328ZM43.3357 33.4661C42.669 33.4661 42.0024 33.9994 42.0024 34.7994C42.0024 35.5994 42.5357 36.2661 43.3357 36.2661C44.1357 36.2661 44.669 35.7328 44.669 34.9328C44.669 34.1328 44.1357 33.4661 43.3357 33.4661Z" fill="white"/>
</svg>
