<svg width="64" height="64" viewBox="0 0 64 64" fill="none" xmlns="http://www.w3.org/2000/svg">
<path d="M32 64C49.6731 64 64 49.6731 64 32C64 14.3269 49.6731 0 32 0C14.3269 0 0 14.3269 0 32C0 49.6731 14.3269 64 32 64Z" fill="#23CF5D"/>
<path fill-rule="evenodd" clip-rule="evenodd" d="M40.0609 35.3745C39.6492 35.1635 37.6306 34.1463 37.2548 34.0046C36.879 33.8644 36.6055 33.795 36.3305 34.2171C36.0569 34.6365 35.2708 35.5856 35.0318 35.8661C34.7914 36.148 34.5524 36.182 34.142 35.9724C33.7317 35.7599 32.4082 35.3165 30.84 33.8828C29.62 32.7665 28.7952 31.388 28.5561 30.9659C28.3171 30.5451 28.5299 30.317 28.7358 30.1074C28.9208 29.919 29.1462 29.6158 29.352 29.3708C29.5579 29.1243 29.6256 28.9485 29.7623 28.6666C29.9004 28.3861 29.8314 28.141 29.7278 27.93C29.6256 27.7189 28.8048 25.6464 28.4621 24.8034C28.1292 23.9832 27.7908 24.095 27.5393 24.0809C27.2988 24.0695 27.0253 24.0668 26.7518 24.0668C26.4782 24.0668 26.0333 24.1715 25.6575 24.5938C25.2803 25.0145 24.2206 26.033 24.2206 28.1056C24.2206 30.1768 25.6907 32.1785 25.8966 32.4605C26.1024 32.741 28.7911 36.9938 32.9096 38.817C33.8906 39.2505 34.6547 39.5098 35.2501 39.7025C36.2338 40.024 37.1291 39.9786 37.8365 39.8696C38.624 39.7491 40.2653 38.851 40.608 37.8679C40.9492 36.8846 40.9492 36.0418 40.8471 35.8661C40.7448 35.6905 40.4713 35.5856 40.0595 35.3745H40.0609ZM32.5697 45.8621H32.5642C30.1179 45.8626 27.7166 45.1882 25.6119 43.91L25.1145 43.6068L19.9446 44.9979L21.3248 39.83L21 39.3001C19.6325 37.068 18.9088 34.4845 18.9125 31.8485C18.9152 24.1276 25.0414 17.8462 32.5753 17.8462C36.2227 17.8462 39.6519 19.3054 42.23 21.9517C43.5017 23.2501 44.5095 24.7943 45.1954 26.4948C45.8811 28.1952 46.2313 30.0182 46.2257 31.8584C46.2229 39.5791 40.0968 45.8621 32.5697 45.8621ZM44.1919 19.9414C42.6697 18.3702 40.8584 17.1244 38.8631 16.2762C36.8679 15.4281 34.7283 14.9943 32.5684 15.0001C23.5132 15.0001 16.1409 22.558 16.1382 31.847C16.1368 34.8164 16.8925 37.7149 18.3307 40.2691L16 49L24.7098 46.6569C27.119 48.0029 29.8191 48.7081 32.5629 48.7081H32.5697C41.6249 48.7081 48.9971 41.1503 48.9999 31.8598C49.0066 29.6459 48.5852 27.4527 47.7599 25.4069C46.9346 23.3612 45.7218 21.5036 44.1919 19.9414Z" fill="white"/>
</svg>
