<svg width="64" height="64" viewBox="0 0 64 64" fill="none" xmlns="http://www.w3.org/2000/svg">
<path d="M32 64C49.6731 64 64 49.6731 64 32C64 14.3269 49.6731 0 32 0C14.3269 0 0 14.3269 0 32C0 49.6731 14.3269 64 32 64Z" fill="url(#paint0_radial_805_790)"/>
<path d="M26.668 32C26.668 29.0546 29.0551 26.6663 32.0007 26.6663C34.9462 26.6663 37.3346 29.0546 37.3346 32C37.3346 34.9454 34.9462 37.3337 32.0007 37.3337C29.0551 37.3337 26.668 34.9454 26.668 32ZM23.7845 32C23.7845 36.5376 27.4629 40.2158 32.0007 40.2158C36.5384 40.2158 40.2168 36.5376 40.2168 32C40.2168 27.4624 36.5384 23.7842 32.0007 23.7842C27.4629 23.7842 23.7845 27.4622 23.7845 32ZM38.6221 23.4584C38.6219 23.8382 38.7344 24.2095 38.9453 24.5253C39.1561 24.841 39.4559 25.0873 39.8066 25.2328C40.1575 25.3782 40.5435 25.4163 40.916 25.3424C41.2885 25.2686 41.6307 25.0858 41.8993 24.8174C42.168 24.549 42.351 24.207 42.4251 23.8345C42.4994 23.4621 42.4616 23.076 42.3163 22.7251C42.1712 22.3743 41.9253 22.0743 41.6095 21.8632C41.2938 21.6521 40.9227 21.5393 40.543 21.5392C40.0339 21.5394 39.545 21.7417 39.185 22.1016C38.825 22.4614 38.6225 22.9494 38.6221 23.4584ZM25.5363 45.0238C23.9763 44.9527 23.1285 44.6929 22.565 44.4734C21.8179 44.1825 21.2849 43.8361 20.7246 43.2766C20.1641 42.7169 19.8173 42.1845 19.5277 41.4375C19.308 40.8743 19.0482 40.0261 18.9773 38.4662C18.8997 36.7797 18.8842 36.273 18.8842 32.0002C18.8842 27.7275 18.901 27.2223 18.9773 25.5343C19.0483 23.9744 19.3101 23.1279 19.5277 22.5631C19.8185 21.8161 20.1649 21.2831 20.7246 20.7227C21.2842 20.1623 21.8167 19.8154 22.565 19.5259C23.1282 19.3063 23.9763 19.0464 25.5363 18.9755C27.223 18.8979 27.7296 18.8824 32.0007 18.8824C36.2717 18.8824 36.7789 18.899 38.4669 18.9758C40.0269 19.0467 40.8734 19.3086 41.4382 19.5262C42.1853 19.8157 42.7183 20.1633 43.2786 20.723C43.8391 21.2825 44.1847 21.8163 44.4755 22.5633C44.6952 23.1265 44.955 23.9746 45.0259 25.5346C45.1035 27.2225 45.119 27.7278 45.119 32.0005C45.119 36.2733 45.1035 36.7785 45.0259 38.4664C44.9549 40.0264 44.6937 40.8743 44.4755 41.4377C44.1847 42.1847 43.8383 42.7177 43.2786 43.2768C42.719 43.8359 42.1853 44.1827 41.4382 44.4736C40.875 44.6933 40.0269 44.9531 38.4669 45.024C36.7802 45.1016 36.2736 45.117 32.0007 45.117C27.7277 45.117 27.2225 45.1014 25.5363 45.0238ZM25.4039 16.0969C23.7006 16.1745 22.5366 16.4446 21.5201 16.8401C20.468 17.2485 19.5762 17.7965 18.6857 18.6856C17.7951 19.5746 17.2486 20.4665 16.8401 21.5199C16.4446 22.5369 16.1745 23.7002 16.0969 25.4035C16.018 27.1095 16 27.6549 16 32C16 36.3451 16.018 36.8905 16.0969 38.5965C16.1745 40.2999 16.4446 41.4631 16.8401 42.4801C17.2486 43.5321 17.7953 44.4257 18.6857 45.3144C19.5761 46.2031 20.4667 46.7503 21.5201 47.1599C22.5385 47.5554 23.7006 47.8255 25.4039 47.9031C27.1109 47.9807 27.6554 48 32.0007 48C36.3459 48 36.8913 47.9819 38.5974 47.9031C40.3009 47.8255 41.4641 47.5554 42.4811 47.1599C43.5333 46.7503 44.425 46.2035 45.3157 45.3144C46.2062 44.4254 46.7515 43.5321 47.1611 42.4801C47.5567 41.4631 47.8281 40.2998 47.9043 38.5965C47.9819 36.8893 48 36.3451 48 32C48 27.6549 47.9819 27.1095 47.9043 25.4035C47.8269 23.7001 47.5567 22.5363 47.1611 21.5199C46.7515 20.4679 46.2047 19.5761 45.3157 18.6856C44.4265 17.7951 43.5333 17.2485 42.4825 16.8401C41.4641 16.4446 40.3008 16.1731 38.5986 16.0969C36.8923 16.019 36.3472 16 32.0025 16C27.6579 16 27.1109 16.0181 25.4039 16.0969Z" fill="white"/>
<defs>
<radialGradient id="paint0_radial_805_790" cx="0" cy="0" r="1" gradientUnits="userSpaceOnUse" gradientTransform="translate(4.14201 62.5979) scale(81.2563)">
<stop stop-color="#F58529"/>
<stop offset="0.125" stop-color="#FEDA77"/>
<stop offset="0.515625" stop-color="#DD2A7B"/>
<stop offset="0.885417" stop-color="#8134AF"/>
<stop offset="1" stop-color="#515BD4"/>
</radialGradient>
</defs>
</svg>
