<svg width="64" height="64" viewBox="0 0 64 64" fill="none" xmlns="http://www.w3.org/2000/svg">
<path d="M32 64C49.6731 64 64 49.6731 64 32C64 14.3269 49.6731 0 32 0C14.3269 0 0 14.3269 0 32C0 49.6731 14.3269 64 32 64Z" fill="#FFE812"/>
<path d="M32.0004 18.958C22.427 18.958 14.667 24.6967 14.667 31.7713C14.667 36.3473 17.9124 40.3607 22.7924 42.6273C22.5257 43.486 21.0857 48.15 21.027 48.5153C21.027 48.5153 20.9924 48.7927 21.1844 48.8967C21.3737 49.0007 21.5977 48.9207 21.5977 48.9207C22.1417 48.8487 27.9204 45.0434 28.9204 44.382C29.9204 44.5154 30.9497 44.5847 32.0004 44.5847C41.5737 44.5847 49.3337 38.8487 49.3337 31.7713C49.3337 24.6967 41.5737 18.958 32.0004 18.958Z" fill="black"/>
<path d="M22.4163 36.2411C21.8643 36.2411 21.4163 35.8411 21.4163 35.3478V29.7771H19.8563C19.315 29.7771 18.875 29.3664 18.875 28.8598C18.875 28.3531 19.315 27.9424 19.8563 27.9424H24.9763C25.5176 27.9424 25.9577 28.3531 25.9577 28.8598C25.9577 29.3664 25.5176 29.7771 24.9763 29.7771H23.4163V35.3478C23.4163 35.8411 22.9683 36.2411 22.4163 36.2411ZM31.187 36.2304C30.7683 36.2304 30.451 36.0704 30.3523 35.8144L29.859 34.6011H26.8083L26.3123 35.8171C26.219 36.0704 25.899 36.2304 25.483 36.2304C25.2616 36.2304 25.0456 36.1851 24.8456 36.0998C24.5708 35.9824 24.3043 35.6544 24.6083 34.7691L27.0003 28.8678C27.171 28.4171 27.6803 27.9558 28.3336 27.9424C28.987 27.9558 29.499 28.4171 29.667 28.8678L32.059 34.7664C32.363 35.6544 32.0963 35.9824 31.8217 36.0998C31.6217 36.1851 31.4056 36.2304 31.187 36.2304C31.187 36.2304 31.1843 36.2304 31.187 36.2304ZM29.3336 32.9398L28.3336 30.2784L27.3336 32.9398H29.3336ZM33.667 36.1051C33.139 36.1051 32.7096 35.7184 32.7096 35.2464V28.8784C32.7096 28.3611 33.1657 27.9424 33.7283 27.9424C34.2937 27.9424 34.7496 28.3611 34.7496 28.8784V34.3878H36.875C37.403 34.3878 37.835 34.7718 37.835 35.2464C37.835 35.7184 37.403 36.1051 36.875 36.1051H33.667ZM39.2217 36.2304C38.6723 36.2304 38.2217 35.8091 38.2217 35.2918V28.8784C38.2217 28.3611 38.6723 27.9424 39.2217 27.9424C39.7737 27.9424 40.2217 28.3611 40.2217 28.8784V30.8944L43.0136 28.2784C43.155 28.1424 43.3523 28.0704 43.5683 28.0704C43.8163 28.0704 44.067 28.1691 44.2563 28.3451C44.4297 28.5104 44.5363 28.7211 44.5496 28.9398C44.563 29.1611 44.4856 29.3638 44.3283 29.5104L42.051 31.6464L44.5123 34.7051C44.5896 34.8038 44.6483 34.9158 44.683 35.0331C44.715 35.1531 44.723 35.2784 44.7043 35.3984C44.6857 35.5211 44.643 35.6384 44.5763 35.7451C44.5096 35.8518 44.4217 35.9424 44.315 36.0171C44.1417 36.1398 43.931 36.2064 43.715 36.2064C43.5603 36.2064 43.4056 36.1744 43.267 36.1104C43.1283 36.0438 43.0083 35.9504 42.9148 35.8331L40.571 32.9211L40.2243 33.2464V35.2918C40.2217 35.5398 40.1176 35.7797 39.931 35.9557C39.7416 36.1317 39.4883 36.2304 39.2217 36.2304Z" fill="#FFE812"/>
</svg>
