<?xml version="1.0" encoding="UTF-8"?>
<svg xmlns="http://www.w3.org/2000/svg" xmlns:xlink="http://www.w3.org/1999/xlink" width="64px" height="64px" viewBox="0 0 64 64" version="1.1">
<defs>
<clipPath id="clip1">
  <path d="M 17.101562 17.101562 L 47 17.101562 L 47 47 L 17.101562 47 Z M 17.101562 17.101562 "/>
</clipPath>
</defs>
<g id="surface1">
<path style=" stroke:none;fill-rule:nonzero;fill:rgb(27.45098%,44.705882%,57.647059%);fill-opacity:1;" d="M 64 32 C 64 49.671875 49.671875 64 32 64 C 14.328125 64 0 49.671875 0 32 C 0 14.328125 14.328125 0 32 0 C 49.671875 0 64 14.328125 64 32 Z M 64 32 "/>
<g clip-path="url(#clip1)" clip-rule="nonzero">
<path style=" stroke:none;fill-rule:nonzero;fill:rgb(100%,100%,100%);fill-opacity:1;" d="M 43.199219 17.101562 L 20.800781 17.101562 C 18.699219 17.101562 17.101562 18.800781 17.101562 20.800781 L 17.101562 37.601562 C 17.101562 39.699219 18.800781 41.300781 20.800781 41.300781 L 26.398438 41.300781 L 26.398438 46.199219 C 26.398438 46.601562 26.699219 46.898438 27.101562 46.898438 C 27.199219 46.898438 27.398438 46.898438 27.5 46.800781 L 34.800781 41.300781 L 43.199219 41.300781 C 45.300781 41.300781 46.898438 39.601562 46.898438 37.601562 L 46.898438 20.800781 C 47 18.800781 45.300781 17.101562 43.199219 17.101562 Z M 45.101562 37.601562 C 45.101562 38.601562 44.300781 39.5 43.199219 39.5 L 34.199219 39.5 L 33.699219 39.898438 L 28.300781 43.898438 L 28.300781 39.5 L 20.800781 39.5 C 19.800781 39.5 18.898438 38.699219 18.898438 37.601562 L 18.898438 20.800781 C 18.898438 19.800781 19.699219 18.898438 20.800781 18.898438 L 43.199219 18.898438 C 44.199219 18.898438 45.101562 19.699219 45.101562 20.800781 Z M 45.101562 37.601562 "/>
</g>
<path style=" stroke:none;fill-rule:nonzero;fill:rgb(100%,100%,100%);fill-opacity:1;" d="M 22.898438 23 L 41.199219 23 C 41.800781 23 42.199219 23.398438 42.199219 24 L 42.199219 24.101562 C 42.199219 24.699219 41.800781 25.101562 41.199219 25.101562 L 22.898438 25.101562 C 22.300781 25.101562 21.898438 24.699219 21.898438 24.101562 L 21.898438 24 C 21.898438 23.398438 22.398438 23 22.898438 23 Z M 22.898438 23 "/>
<path style=" stroke:none;fill-rule:nonzero;fill:rgb(100%,100%,100%);fill-opacity:1;" d="M 22.898438 27.800781 L 41.199219 27.800781 C 41.800781 27.800781 42.199219 28.199219 42.199219 28.800781 L 42.199219 28.898438 C 42.199219 29.5 41.800781 29.898438 41.199219 29.898438 L 22.898438 29.898438 C 22.300781 29.898438 21.898438 29.5 21.898438 28.898438 L 21.898438 28.800781 C 21.898438 28.199219 22.398438 27.800781 22.898438 27.800781 Z M 22.898438 27.800781 "/>
<path style=" stroke:none;fill-rule:nonzero;fill:rgb(100%,100%,100%);fill-opacity:1;" d="M 22.898438 32.601562 L 41.199219 32.601562 C 41.800781 32.601562 42.199219 33 42.199219 33.601562 L 42.199219 33.699219 C 42.199219 34.300781 41.800781 34.699219 41.199219 34.699219 L 22.898438 34.699219 C 22.300781 34.699219 21.898438 34.300781 21.898438 33.699219 L 21.898438 33.601562 C 21.898438 33 22.398438 32.601562 22.898438 32.601562 Z M 22.898438 32.601562 "/>
<path style="fill-rule:nonzero;fill:rgb(100%,100%,100%);fill-opacity:1;stroke-width:0.28;stroke-linecap:butt;stroke-linejoin:miter;stroke:rgb(27.45098%,44.705882%,57.647059%);stroke-opacity:1;stroke-miterlimit:10;" d="M 50.800781 21.300781 C 50.601562 22 49.800781 22.5 49.101562 22.5 L 45.898438 22.5 L 45.898438 25.601562 C 45.898438 26.199219 45.601562 26.898438 45.101562 27.199219 C 43.800781 27.898438 42.398438 27 42.398438 25.699219 L 42.398438 22.5 L 39.199219 22.5 C 38.398438 22.5 37.699219 22.101562 37.5 21.300781 C 37.101562 20.101562 38 19 39.101562 19 L 42.300781 19 L 42.300781 15.800781 C 42.300781 14.5 43.699219 13.601562 45 14.300781 C 45.5 14.601562 45.800781 15.199219 45.800781 15.800781 L 45.800781 19 L 49 19 C 50.300781 19 51.199219 20.101562 50.800781 21.300781 Z M 50.800781 21.300781 "/>
</g>
</svg>
