<svg width="64" height="64" viewBox="0 0 64 64" fill="none" xmlns="http://www.w3.org/2000/svg">
<path d="M32 64C49.7333 64 64 49.7333 64 32C64 14.2667 49.7333 0 32 0C14.2667 0 0 14.2667 0 32C0 49.7333 14.2667 64 32 64Z" fill="#06C755"/>
<path d="M50.9341 31.3333C50.9341 22.8 42.4007 16 32.0007 16C21.6007 16 13.0674 22.9333 13.0674 31.3333C13.0674 38.9333 19.8674 45.3333 28.9341 46.5333C29.6007 46.6667 30.4007 46.9333 30.6674 47.4667C30.8007 48 30.8007 48.6667 30.6674 49.2C30.6674 49.2 30.4007 50.5333 30.4007 50.8C30.2674 51.3333 30.0007 52.6667 32.0007 51.8667C34.0007 51.0667 42.9341 45.4667 46.9341 40.8C49.6007 37.7333 50.9341 34.6667 50.9341 31.3333Z" fill="white"/>
<path d="M44.6669 36.2678H39.3335C39.2002 36.2678 38.9335 36.1345 38.9335 35.8678V27.6012C38.9335 27.4678 39.0669 27.2012 39.3335 27.2012H44.6669C44.8002 27.2012 45.0669 27.3345 45.0669 27.6012V28.9345C45.0669 29.0678 44.9335 29.3345 44.6669 29.3345H41.0669V30.6678H44.6669C44.8002 30.6678 45.0669 30.8012 45.0669 31.0678V32.4012C45.0669 32.5345 44.9335 32.8012 44.6669 32.8012H41.0669V34.1345H44.6669C44.8002 34.1345 45.0669 34.2678 45.0669 34.5345V35.8678C45.0669 36.0012 44.8002 36.2678 44.6669 36.2678ZM24.9335 36.2678C25.0669 36.2678 25.3335 36.1345 25.3335 35.8678V34.5345C25.3335 34.4012 25.2002 34.1345 24.9335 34.1345H21.3335V27.6012C21.3335 27.4678 21.2002 27.2012 20.9335 27.2012H19.6002C19.4669 27.2012 19.2002 27.3345 19.2002 27.6012V35.8678C19.2002 36.0012 19.3335 36.2678 19.6002 36.2678H24.9335ZM28.1335 27.2012H26.8002C26.6669 27.2012 26.4002 27.3345 26.4002 27.6012V35.8678C26.4002 36.0012 26.5335 36.2678 26.8002 36.2678H28.1335C28.2669 36.2678 28.5335 36.1345 28.5335 35.8678V27.6012C28.5335 27.3345 28.4002 27.2012 28.1335 27.2012ZM37.3335 27.2012H36.0002C35.8669 27.2012 35.6002 27.3345 35.6002 27.6012V32.5345L31.8669 27.3345H30.5335C30.4002 27.3345 30.1335 27.4678 30.1335 27.7345V36.0012C30.1335 36.1345 30.2669 36.4012 30.5335 36.4012H31.8669C32.0002 36.4012 32.2669 36.2678 32.2669 36.0012V31.0678L36.0002 36.1345C36.0002 36.1345 36.0002 36.2678 36.1335 36.2678H37.6002C37.7335 36.2678 38.0002 36.1345 38.0002 35.8678V27.6012C37.7335 27.3345 37.4669 27.2012 37.3335 27.2012Z" fill="#06C755"/>
</svg>
